<svg xmlns="http://www.w3.org/2000/svg" width="36" height="36" viewBox="0 0 36 36"><defs><style>.a,.c{fill:#d71671;}.a,.b{fill-rule:evenodd;}.b{fill:#2a3536;}</style></defs><g transform="translate(0)"><path class="a" d="M18,0A18,18,0,0,0,5.272,30.728q.553.553,1.145,1.052L7.4,30.8q-.593-.492-1.151-1.047A16.613,16.613,0,0,1,22.866,2.117l.054.016.029.009v0A.7.7,0,0,0,23.31.793h0A18.061,18.061,0,0,0,18,0ZM11.913,33.506a.7.7,0,0,0-.2,1.362l0,.006a18.005,18.005,0,0,0,19.02-29.6,18.233,18.233,0,0,0-1.877-1.637l-.991.991A16.615,16.615,0,0,1,12.2,33.569a.693.693,0,0,0-.1-.036l-.034-.013v0a.7.7,0,0,0-.157-.018Z" transform="translate(0)"/><path class="b" d="M517.427,504.416h-5.55v-5.544a.692.692,0,0,0-.692-.692h-6.9a.692.692,0,0,0-.692.692v5.544h-5.55a.692.692,0,0,0-.692.692v6.911a.692.692,0,0,0,.692.692h5.55v5.544a.692.692,0,0,0,.692.692h6.9a.692.692,0,0,0,.692-.692v-5.544h5.55a.692.692,0,0,0,.692-.692v-6.911A.692.692,0,0,0,517.427,504.416Zm-.692,6.912h-5.55a.692.692,0,0,0-.692.692v5.544h-5.515V512.02a.692.692,0,0,0-.692-.692h-5.55V505.8h5.55a.692.692,0,0,0,.692-.692v-5.544h5.515v5.544a.692.692,0,0,0,.692.692h5.55Z" transform="translate(-489.726 -490.543)"/><path class="c" d="M1805.67,223.574a.75.75,0,0,1-1.5,0V217.84a.75.75,0,0,1,.75-.75h5.734a.75.75,0,0,1,0,1.5h-4.984Z" transform="translate(-1776.512 -213.762)"/><path class="c" d="M27.28,1626.494a.75.75,0,0,1,0-1.5h4.984v-4.984a.75.75,0,0,1,1.5,0v5.734a.75.75,0,0,1-.75.75Z" transform="translate(-26.123 -1594.436)"/></g></svg>