<svg xmlns="http://www.w3.org/2000/svg" width="15" height="15" viewBox="0 0 15 15"><defs><style>.a{fill:#b4b7b8;}</style></defs><g transform="translate(-7305 -1668)"><path class="a" d="M192.073,106.96a1.6,1.6,0,0,0,.088.161c.029.044.073.088.1.132a1.318,1.318,0,0,0,.146.132.493.493,0,0,0,.176.088.724.724,0,0,0,.19.059.9.9,0,0,0,.19.015.835.835,0,0,0,.19-.015.524.524,0,0,0,.161-.059h.015a1.09,1.09,0,0,0,.176-.1.944.944,0,0,0,.132-.117l.015-.015a.8.8,0,0,0,.1-.132.458.458,0,0,0,.073-.146c0-.015,0-.015.015-.029a.945.945,0,0,0,.059-.19,1.242,1.242,0,0,0,0-.38,1.353,1.353,0,0,0-.059-.19.83.83,0,0,0-.176-.263l-.029-.029a1.275,1.275,0,0,0-.146-.117c-.059-.029-.1-.058-.161-.088a.824.824,0,0,0-.175-.059.9.9,0,0,0-.19-.015.834.834,0,0,0-.19.015.825.825,0,0,0-.176.059h-.015a1.6,1.6,0,0,0-.161.088,1.279,1.279,0,0,0-.146.117.947.947,0,0,0-.117.132,1.6,1.6,0,0,0-.088.161.825.825,0,0,0-.059.176.9.9,0,0,0-.015.19.835.835,0,0,0,.015.19,1.329,1.329,0,0,0,.062.229Z" transform="translate(7119.522 1565.986)"/><path class="a" d="M180.233,184.763H179.9V181.18a.378.378,0,0,0-.38-.38h-1.54a.378.378,0,0,0-.38.38v.79a.378.378,0,0,0,.38.38h.307v2.428h-.307a.378.378,0,0,0-.38.38v.79a.378.378,0,0,0,.38.38h2.252a.378.378,0,0,0,.38-.38v-.79A.39.39,0,0,0,180.233,184.763Z" transform="translate(7133.394 1493.18)"/><path class="a" d="M7.5,0A7.5,7.5,0,1,0,15,7.5,7.5,7.5,0,0,0,7.5,0Zm0,14.013A6.513,6.513,0,1,1,14.013,7.5,6.513,6.513,0,0,1,7.5,14.013Z" transform="translate(7305 1668)"/></g></svg>